<!-- icon666.com - MILLIONS vector ICONS FREE --><svg version="1.1" id="Capa_1" xmlns="http://www.w3.org/2000/svg" xmlns:xlink="http://www.w3.org/1999/xlink" x="0px" y="0px" viewBox="0 0 490 490" style="enable-background:new 0 0 490 490;" xml:space="preserve"><g><path d="M150.921,47.993c-56.849,0-102.934,46.09-102.934,102.946s46.085,102.946,102.934,102.946s102.934-46.09,102.934-102.946 S207.769,47.993,150.921,47.993z M150.921,233.035c-45.335,0-82.086-36.756-82.086-82.096s36.751-82.096,82.086-82.096 s82.086,36.756,82.086,82.096S196.255,233.035,150.921,233.035z"></path><path d="M486.871,417.701L329.082,259.896c-4.072-4.072-10.669-4.072-14.741,0l-19.87,19.872l-29.721-29.728 c23.099-26.515,37.09-61.173,37.09-99.102C301.841,67.578,234.272,0,150.921,0S0,67.578,0,150.939 C0,234.3,67.569,301.877,150.921,301.877c37.924,0,72.578-13.993,99.09-37.094l29.721,29.728l-19.87,19.873 c-1.954,1.955-5.658,8.427,0,14.742L417.65,486.93c6.934,5.748,12.704,2.036,14.739,0l54.482-54.489 C488.826,430.487,492.808,424.178,486.871,417.701z M150.921,281.027c-71.837,0-130.073-58.243-130.073-130.089 S79.083,20.851,150.921,20.851s130.073,58.242,130.073,130.088S222.758,281.027,150.921,281.027z M425.02,464.818L281.971,321.756 l39.741-39.747l143.049,143.062L425.02,464.818z"></path></g></svg>